# xmcd
#
# Track frame offsets:
#	150
#	16307
#	32710
#	49088
#	66693
#	84313
#	98098
#	115123
#	130148
#	147053
#	162208
#	172085
#	190685
#	207130
#	222760
#	238093
#	250033
#	267613
#	268365
#	269118
#	269870
#	285565
#	303758
#
# Disc length: 4334 seconds
#
# Revision: 0
# Processed by: cddbd v1.5.2PL0 Copyright (c) Steve Scherf et al.
# Submitted via: EasyCDDAExtractor 7.1.2.1
#
DISCID=6110ec17
DTITLE=Various Artist - TM Century - GoldDisc 1162
DYEAR=1900
DGENRE=Country
TTITLE0=Travis Tritt - Take It Easy
TTITLE1=Daron Norwood - If It Wasn't For Her I Wouldn't Have You
TTITLE2=John Anderson - I Wish I Could Have Been There
TTITLE3=Tractors - Baby Likes To Rock It
TTITLE4=Lari White - Now I Know
TTITLE5=David Ball - When The Thought Of You Catches Up With Me
TTITLE6=Tanya Tucker - You Just Watch Me
TTITLE7=Alabama - We Can't Love Like This Anymore
TTITLE8=Hal Ketchum - That's What I Get (For Losin' You)
TTITLE9=Faith Hill - Take Me As I Am
TTITLE10=George Strait - The Big One
TTITLE11=Vince Gill - When Love Finds You
TTITLE12=Joe Diffie - Pickup Man
TTITLE13=Randy Travis - This Is Me
TTITLE14=Tim McGraw - Not A Moment Too Soon
TTITLE15=Mark Chesnett - Goin' Through The Big D
TTITLE16=Reba McEntire - Till You Love Me [Single Version]
TTITLE17=Blank - Blank
TTITLE18=Blank - Blank
TTITLE19=Blank - Blank
TTITLE20=Mark Chesnett - Goin' Through The Big D [Radio Edit]
TTITLE21=Mark Chesnett - Goin' Through The Big D [Dance Mix]
TTITLE22=Mark Chesnett - Goin' Through The Big D [Beat Mix]
EXTD=
EXTT0=
EXTT1=
EXTT2=
EXTT3=
EXTT4=
EXTT5=
EXTT6=
EXTT7=
EXTT8=
EXTT9=
EXTT10=
EXTT11=
EXTT12=
EXTT13=
EXTT14=
EXTT15=
EXTT16=
EXTT17=
EXTT18=
EXTT19=
EXTT20=
EXTT21=
EXTT22=
PLAYORDER=
